<svg width="501.25" xmlns="http://www.w3.org/2000/svg" version="1.1" height="668.22">
 <g transform="translate(-120.81 -155.22)">
  <path stroke="#000" stroke-width="4" d="m122.86 229.51c141.64-93.85 336.9-97.41 497.14-4.29-11.54 270.46-82.31 464.94-245.71 595.71-174.14-124.99-241.97-336.76-251.43-591.42z" fill="#fff"/>
  <path d="m181.38 498.81c10.583 36.602 23.686 72.366 39.906 106.88 0.004 0.009-0.004 0.0226 0 0.0312 35.305 74.435 86.929 141.6 152.38 191.12 76.46-63.808 134.1-149.28 168.47-243.12a14.966 14.966 0 0 1 0.0312 -0.0937c6.7394-18.035 12.724-36.33 18.094-54.812h-378.88z" fill="#1b7201"/>
  <path d="m372.41 176.19c-2.5622-0.0132-5.1249 0.001-7.6875 0.0312a14.966 14.966 0 0 1 -0.0312 0c-78.157 0.77386-156.41 22.115-222.34 63.375 4.0954 90.503 15.544 181.32 41.375 267.28h374.16c26.29-87.17 37.87-179 42.52-270.85-69.469-38.352-148.57-59.435-228-59.844z" fill="#a8d1e5"/>
  <path stroke="#000" stroke-width="4" d="m364.69 176.22c-78.157 0.77386-156.41 22.115-222.34 63.375 5.7055 126.08 25.685 252.8 78.938 366.09 0.004 0.009-0.004 0.0226 0 0.0312 35.305 74.435 86.929 141.6 152.38 191.12 76.46-63.808 134.1-149.28 168.47-243.12a14.966 14.966 0 0 1 0.0312 -0.0937c37.646-100.74 52.762-209.15 58.25-317.59-71.71-39.589-153.68-60.771-235.69-59.812a14.966 14.966 0 0 1 -0.0312 0z" fill="none"/>
  <path stroke-linejoin="round" stroke="#000" stroke-width="4" d="m412.14 535.22c24.84 6.0326 28.584 12.613 32.143 22.857 25.923 6.3087 36.117 25.683 16.429 70 13.691 39.141 10.618 69.674-45.714 72.857-16.897 30.811-37.197 53.682-87.857 5.7143-50.021 2.4018-69.586-49.938-42.857-78.571-18.597-27.197-16.597-67.058 20-72.143-2.3481-8.674 5.7158-26.071 20.714-18.571 1.1849-12.626 13.282-15.227 16.429-13.571 19.735-22.748 10.17-55.96 4.2857-87.857-13.129 2.0234-25.398 7.0603-42.143-3.5714-8.3148-7.0797-26.939 10.873-40-10.714-32.48 3.5122-42.921-13.693-47.143-36.429-40.921-22.145-24.979-71.611 25-72.857-0.30622-26.64 13.443-40.704 49.286-35 2.9787-10.831 13.696-13.923 30-11.429 11.306-22.569 48.337-32.608 80 0 24.099-7.5386 39.067 2.6736 45 17.143 17.799-6.2534 30.293 1.8341 38.571 12.857 49.163-6.9523 73.431 67.686 47.143 80.714-9.5381 2.7378-6.3163 12.514-32.857 14.286-7.6843 7.9754-2.5826 17.656-36.429 22.143-8.1045 16.741-23.942 28.636-61.429 17.857-7.4953 27.09-12.062 58.993 1.4286 84.286 4.5158 6.9096 7.657 5.0725 10 20z" fill="#fff"/>
  <path fill="#ef0707" d="m-132.46 639.21a27.143 47.143 0 1 1 -54.286 0 27.143 47.143 0 1 1 54.286 0z" transform="matrix(.75 0 0 .43182 490.69 351.82)"/>
  <path stroke="#ef0707" stroke-width="9.1281" fill="none" d="m-103.21 636.47a42.679 81.964 0 1 1 -85.357 0 42.679 81.964 0 1 1 85.357 0z" transform="matrix(.85774 0 0 1.0349 496.46 -31.109)"/>
  <path stroke="#ef0707" stroke-width="9.1281" fill="none" d="m-103.21 636.47a42.679 81.964 0 1 1 -85.357 0 42.679 81.964 0 1 1 85.357 0z" transform="matrix(.42887 -.74283 .89621 .51743 -136.53 189.85)"/>
  <path stroke="#ef0707" stroke-width="9.1281" fill="none" d="m-103.21 636.47a42.679 81.964 0 1 1 -85.357 0 42.679 81.964 0 1 1 85.357 0z" transform="matrix(-.42887 -.74283 .89621 -.51743 -261.66 848.5)"/>
 </g>
</svg>
